{
    "asset" : {
        "generator" : "Khronos glTF Blender I/O v1.8.19",
        "version" : "2.0"
    },
    "scene" : 0,
    "scenes" : [
        {
            "name" : "Scene",
            "nodes" : [
                0
            ]
        }
    ],
    "nodes" : [
        {
            "mesh" : 0,
            "name" : "Cylinder.006",
            "scale" : [
                0.05764073505997658,
                0.01837446168065071,
                0.05764073505997658
            ]
        }
    ],
    "materials" : [
        {
            "doubleSided" : true,
            "emissiveFactor" : [
                1,
                0.017469107154475694,
                0
            ],
            "name" : "Material.006",
            "pbrMetallicRoughness" : {
                "baseColorFactor" : [
                    0.25979697704315186,
                    0,
                    0,
                    1
                ],
                "metallicFactor" : 0,
                "roughnessFactor" : 0.5
            }
        },
        {
            "doubleSided" : true,
            "name" : "Material.004",
            "pbrMetallicRoughness" : {
                "baseColorFactor" : [
                    0.2265825867652893,
                    0.2265825867652893,
                    0.2265825867652893,
                    1
                ],
                "metallicFactor" : 0,
                "roughnessFactor" : 0.5
            }
        },
        {
            "doubleSided" : true,
            "name" : "Material.002",
            "pbrMetallicRoughness" : {
                "baseColorFactor" : [
                    0.01002138014882803,
                    0.01002138014882803,
                    0.01002138014882803,
                    1
                ],
                "metallicFactor" : 0,
                "roughnessFactor" : 0.5
            }
        },
        {
            "alphaMode" : "BLEND",
            "doubleSided" : true,
            "name" : "Material.005",
            "pbrMetallicRoughness" : {
                "baseColorFactor" : [
                    0.0028790694195777178,
                    0.049557410180568695,
                    0.001788283116184175,
                    0.24786323308944702
                ],
                "metallicFactor" : 0,
                "roughnessFactor" : 0.5
            }
        },
        {
            "doubleSided" : true,
            "name" : "Material.003",
            "pbrMetallicRoughness" : {
                "baseColorFactor" : [
                    0.12370892614126205,
                    0.12370892614126205,
                    0.12370892614126205,
                    1
                ],
                "metallicFactor" : 0,
                "roughnessFactor" : 0.5
            }
        },
        {
            "doubleSided" : true,
            "name" : "Material.001",
            "pbrMetallicRoughness" : {
                "baseColorFactor" : [
                    0.22025592625141144,
                    0.010221710428595543,
                    0.05520426481962204,
                    1
                ],
                "metallicFactor" : 0,
                "roughnessFactor" : 0.5
            }
        }
    ],
    "meshes" : [
        {
            "name" : "Cylinder.001",
            "primitives" : [
                {
                    "attributes" : {
                        "POSITION" : 0,
                        "NORMAL" : 1,
                        "TEXCOORD_0" : 2
                    },
                    "indices" : 3,
                    "material" : 0
                },
                {
                    "attributes" : {
                        "POSITION" : 4,
                        "NORMAL" : 5,
                        "TEXCOORD_0" : 6
                    },
                    "indices" : 7,
                    "material" : 1
                },
                {
                    "attributes" : {
                        "POSITION" : 8,
                        "NORMAL" : 9,
                        "TEXCOORD_0" : 10
                    },
                    "indices" : 11,
                    "material" : 2
                },
                {
                    "attributes" : {
                        "POSITION" : 12,
                        "NORMAL" : 13,
                        "TEXCOORD_0" : 14
                    },
                    "indices" : 15,
                    "material" : 3
                },
                {
                    "attributes" : {
                        "POSITION" : 16,
                        "NORMAL" : 17,
                        "TEXCOORD_0" : 18
                    },
                    "indices" : 19,
                    "material" : 4
                },
                {
                    "attributes" : {
                        "POSITION" : 20,
                        "NORMAL" : 21,
                        "TEXCOORD_0" : 22
                    },
                    "indices" : 23,
                    "material" : 5
                }
            ]
        }
    ],
    "accessors" : [
        {
            "bufferView" : 0,
            "componentType" : 5126,
            "count" : 192,
            "max" : [
                -31.033370971679688,
                17.08758544921875,
                -42.303253173828125
            ],
            "min" : [
                -33.03337097167969,
                15.087584495544434,
                -44.303253173828125
            ],
            "type" : "VEC3"
        },
        {
            "bufferView" : 1,
            "componentType" : 5126,
            "count" : 192,
            "type" : "VEC3"
        },
        {
            "bufferView" : 2,
            "componentType" : 5126,
            "count" : 192,
            "type" : "VEC2"
        },
        {
            "bufferView" : 3,
            "componentType" : 5123,
            "count" : 372,
            "type" : "SCALAR"
        },
        {
            "bufferView" : 4,
            "componentType" : 5126,
            "count" : 30401,
            "max" : [
                51.90380859375,
                24.290456771850586,
                79.66154479980469
            ],
            "min" : [
                -51.90380859375,
                -35.71989440917969,
                -80.61182403564453
            ],
            "type" : "VEC3"
        },
        {
            "bufferView" : 5,
            "componentType" : 5126,
            "count" : 30401,
            "type" : "VEC3"
        },
        {
            "bufferView" : 6,
            "componentType" : 5126,
            "count" : 30401,
            "type" : "VEC2"
        },
        {
            "bufferView" : 7,
            "componentType" : 5123,
            "count" : 47922,
            "type" : "SCALAR"
        },
        {
            "bufferView" : 8,
            "componentType" : 5126,
            "count" : 4068,
            "max" : [
                0.9559780359268188,
                35.486480712890625,
                80.61183166503906
            ],
            "min" : [
                -33.92719268798828,
                -6.09719181060791,
                16.933948516845703
            ],
            "type" : "VEC3"
        },
        {
            "bufferView" : 9,
            "componentType" : 5126,
            "count" : 4068,
            "type" : "VEC3"
        },
        {
            "bufferView" : 10,
            "componentType" : 5126,
            "count" : 4068,
            "type" : "VEC2"
        },
        {
            "bufferView" : 11,
            "componentType" : 5123,
            "count" : 6330,
            "type" : "SCALAR"
        },
        {
            "bufferView" : 12,
            "componentType" : 5126,
            "count" : 240,
            "max" : [
                36.34379577636719,
                24.28383445739746,
                -3.4390792846679688
            ],
            "min" : [
                -36.52082061767578,
                19.377479553222656,
                -65.1969223022461
            ],
            "type" : "VEC3"
        },
        {
            "bufferView" : 13,
            "componentType" : 5126,
            "count" : 240,
            "type" : "VEC3"
        },
        {
            "bufferView" : 14,
            "componentType" : 5126,
            "count" : 240,
            "type" : "VEC2"
        },
        {
            "bufferView" : 15,
            "componentType" : 5123,
            "count" : 468,
            "type" : "SCALAR"
        },
        {
            "bufferView" : 16,
            "componentType" : 5126,
            "count" : 3072,
            "max" : [
                11.989917755126953,
                31.471620559692383,
                59.84531021118164
            ],
            "min" : [
                -13.609394073486328,
                16.950912475585938,
                52.85396194458008
            ],
            "type" : "VEC3"
        },
        {
            "bufferView" : 17,
            "componentType" : 5126,
            "count" : 3072,
            "type" : "VEC3"
        },
        {
            "bufferView" : 18,
            "componentType" : 5126,
            "count" : 3072,
            "type" : "VEC2"
        },
        {
            "bufferView" : 19,
            "componentType" : 5123,
            "count" : 4584,
            "type" : "SCALAR"
        },
        {
            "bufferView" : 20,
            "componentType" : 5126,
            "count" : 2944,
            "max" : [
                33.899131774902344,
                35.71989440917969,
                34.27286148071289
            ],
            "min" : [
                13.718982696533203,
                16.5386962890625,
                18.91646957397461
            ],
            "type" : "VEC3"
        },
        {
            "bufferView" : 21,
            "componentType" : 5126,
            "count" : 2944,
            "type" : "VEC3"
        },
        {
            "bufferView" : 22,
            "componentType" : 5126,
            "count" : 2944,
            "type" : "VEC2"
        },
        {
            "bufferView" : 23,
            "componentType" : 5123,
            "count" : 4584,
            "type" : "SCALAR"
        }
    ],
    "bufferViews" : [
        {
            "buffer" : 0,
            "byteLength" : 2304,
            "byteOffset" : 0
        },
        {
            "buffer" : 0,
            "byteLength" : 2304,
            "byteOffset" : 2304
        },
        {
            "buffer" : 0,
            "byteLength" : 1536,
            "byteOffset" : 4608
        },
        {
            "buffer" : 0,
            "byteLength" : 744,
            "byteOffset" : 6144
        },
        {
            "buffer" : 0,
            "byteLength" : 364812,
            "byteOffset" : 6888
        },
        {
            "buffer" : 0,
            "byteLength" : 364812,
            "byteOffset" : 371700
        },
        {
            "buffer" : 0,
            "byteLength" : 243208,
            "byteOffset" : 736512
        },
        {
            "buffer" : 0,
            "byteLength" : 95844,
            "byteOffset" : 979720
        },
        {
            "buffer" : 0,
            "byteLength" : 48816,
            "byteOffset" : 1075564
        },
        {
            "buffer" : 0,
            "byteLength" : 48816,
            "byteOffset" : 1124380
        },
        {
            "buffer" : 0,
            "byteLength" : 32544,
            "byteOffset" : 1173196
        },
        {
            "buffer" : 0,
            "byteLength" : 12660,
            "byteOffset" : 1205740
        },
        {
            "buffer" : 0,
            "byteLength" : 2880,
            "byteOffset" : 1218400
        },
        {
            "buffer" : 0,
            "byteLength" : 2880,
            "byteOffset" : 1221280
        },
        {
            "buffer" : 0,
            "byteLength" : 1920,
            "byteOffset" : 1224160
        },
        {
            "buffer" : 0,
            "byteLength" : 936,
            "byteOffset" : 1226080
        },
        {
            "buffer" : 0,
            "byteLength" : 36864,
            "byteOffset" : 1227016
        },
        {
            "buffer" : 0,
            "byteLength" : 36864,
            "byteOffset" : 1263880
        },
        {
            "buffer" : 0,
            "byteLength" : 24576,
            "byteOffset" : 1300744
        },
        {
            "buffer" : 0,
            "byteLength" : 9168,
            "byteOffset" : 1325320
        },
        {
            "buffer" : 0,
            "byteLength" : 35328,
            "byteOffset" : 1334488
        },
        {
            "buffer" : 0,
            "byteLength" : 35328,
            "byteOffset" : 1369816
        },
        {
            "buffer" : 0,
            "byteLength" : 23552,
            "byteOffset" : 1405144
        },
        {
            "buffer" : 0,
            "byteLength" : 9168,
            "byteOffset" : 1428696
        }
    ],
    "buffers" : [
        {
            "byteLength" : 1437864,
            "uri" : "GameBoy.bin"
        }
    ]
}
